<?xml version="1.0" encoding="UTF-8"?>
<svg width="1097px" height="308px" viewBox="0 0 1097 308" version="1.1" xmlns="http://www.w3.org/2000/svg" xmlns:xlink="http://www.w3.org/1999/xlink">
    <title>logo2020</title>
    <g id="logo2020" stroke="none" stroke-width="1" fill="none" fill-rule="evenodd">
        <g id="ATG_primary_flat_no_parallellogram" fill="#FFDE00" fill-rule="nonzero">
            <path d="M177.763,56.9193 L0,303.42864 L109.45444,303.42864 L145.40819,250.8935 L245.62573,250.8935 L238.18123,303.42864 L333.63817,303.42864 L374.80617,4.37629 L287.66317,4.37629 C225.05316,4.37629 206.6644,16.65068 177.763,56.9193 Z M256.57713,178.21657 L195.12871,178.21657 L269.713,69.178 L273.2041,69.178 L256.57713,178.21657 Z" id="Shape"></path>
            <path d="M897.58879,81.88312 L1027.63844,81.88312 C1040.32806,25.83325 1027.19211,0 908.0944,0 C782.44349,0 749.15866,20.14258 696.62353,145.36961 C655.90129,242.56461 660.71545,307.8128 803.02393,307.8128 C934.36532,307.8128 957.13036,269.29013 1009.67259,141.4241 L1020.62472,114.71433 L904.15677,114.71433 C865.18816,114.71433 857.30502,118.20623 840.23143,157.19039 L827.09543,186.95339 L884.8913,186.95339 C870.44805,225.05315 860.81187,230.31384 825.3503,230.31384 C780.24391,230.31384 771.93096,219.79247 803.02391,145.3696 C829.295,82.74467 844.17694,81.88312 897.58879,81.88312 Z" id="Path"></path>
            <path d="M699.68386,66.54761 L726.39362,4.37629 L493.45023,4.37629 C436.09306,4.37629 426.03398,10.06775 402.38533,64.80953 L392.74833,87.13592 L501.772,87.13592 L409.822,303.42864 L516.661,303.42864 L608.17262,87.13592 L660.71545,87.13592 C687.86386,87.13592 693.54666,80.99085 699.68386,66.54761 Z" id="Path"></path>
            <g id="Group" transform="translate(1047.000000, 0.000000)">
                <path d="M25.01858,0.8398 C9.43126,0.8398 0.83887,11.37995 0.83887,25.02349 C0.83887,38.6677 9.43126,49.20254 25.01858,49.20254 C40.60058,49.20254 49.20358,38.6677 49.20358,25.02354 C49.20358,11.37995 40.60059,0.8398 25.01858,0.8398 Z M25.01858,45.71569 C10.92258,45.71569 4.64946,36.21045 4.64946,25.02349 C4.64946,13.89623 10.92259,4.32598 25.01858,4.32598 C39.11457,4.32598 45.39301,13.89623 45.39301,25.02349 C45.39301,36.21045 39.11456,45.71569 25.01858,45.71569 L25.01858,45.71569 Z" id="Shape"></path>
                <path d="M30.9096,29.81459 C30.01268,28.49972 29.3546,27.5431 28.46297,27.30359 L28.46297,27.2439 C32.93697,26.34764 34.7308,23.84131 34.7308,19.53715 C34.7308,14.09194 31.98165,11.28707 24.1535,11.28707 C21.7532184,11.3339789 19.3583566,11.5336258 16.98344,11.8848 C16.68093,11.9445 16.62255,12.12362 16.62255,12.36311 L16.62255,37.17305 C16.6089354,37.2721497 16.6426343,37.3718926 16.7135619,37.442429 C16.7844894,37.5129655 16.8844171,37.5461124 16.98344,37.53195 L20.56582,37.53195 C20.80464,37.53195 20.91609,37.41254 20.91609,37.17305 L20.91609,27.6028 L24.74791,27.6028 L30.67077,36.99393 C30.9096,37.41254 30.97328,37.53193 31.50931,37.53193 L35.38889,37.53193 C35.80816,37.53193 35.86654,37.23274 35.6914,36.93421 L30.9096,29.81459 Z M24.21188,24.02043 L20.91609,24.02043 L20.91609,15.22768 C21.39909,15.16798 23.01775,15.10827 24.21188,15.10827 C29.11575,15.10827 30.07636,15.3471 30.07636,19.53715 C30.07636,23.72189 29.05737,24.02043 24.21188,24.02043 L24.21188,24.02043 Z" id="Shape"></path>
            </g>
        </g>
    </g>
</svg>